<svg xmlns="http://www.w3.org/2000/svg" xmlns:xlink="http://www.w3.org/1999/xlink" width="500" zoomAndPan="magnify" viewBox="0 0 375 149.999998" height="200" preserveAspectRatio="xMidYMid meet" version="1.0"><defs><g/><clipPath id="764f617365"><rect x="0" width="176" y="0" height="127"/></clipPath><clipPath id="d3d5f7f15a"><rect x="0" width="189" y="0" height="128"/></clipPath></defs><g transform="matrix(1, 0, 0, 1, 3, 9)"><g clip-path="url(#764f617365)"><g fill="#001a70" fill-opacity="1"><g transform="translate(0.775202, 92.524592)"><g><path d="M 6.070312 0 L 32.769531 0 C 54.992188 0 69.367188 -13.351562 69.367188 -32.769531 C 69.367188 -52.375 54.617188 -66.289062 28.101562 -66.289062 L 6.070312 -66.289062 C 4.761719 -66.289062 3.828125 -65.632812 3.828125 -64.515625 L 3.828125 -64.140625 C 3.828125 -61.527344 7.5625 -60.40625 7.5625 -56.113281 L 7.5625 -10.175781 C 7.5625 -5.882812 3.828125 -4.761719 3.828125 -2.148438 L 3.828125 -1.773438 C 3.828125 -0.652344 4.761719 0 6.070312 0 Z M 32.398438 -6.535156 C 27.261719 -6.535156 24.273438 -10.082031 24.273438 -16.152344 L 24.273438 -55.269531 C 24.273438 -58.632812 26.234375 -59.753906 28.476562 -59.753906 L 29.503906 -59.753906 C 42.292969 -59.753906 51.628906 -43.132812 51.628906 -24.929688 C 51.628906 -12.699219 44.90625 -6.535156 36.132812 -6.535156 Z M 32.398438 -6.535156 "/></g></g></g><g fill="#001a70" fill-opacity="1"><g transform="translate(72.571301, 92.524592)"><g><path d="M 40.613281 -14.75 C 38.933594 -12.511719 35.292969 -10.644531 31.277344 -10.644531 C 26.703125 -10.644531 23.0625 -12.882812 20.632812 -16.710938 L 39.210938 -27.167969 C 41.359375 -28.289062 42.855469 -30.15625 42.855469 -32.957031 C 42.855469 -38.839844 37.253906 -45.75 25.019531 -45.75 C 12.789062 -45.75 2.054688 -36.503906 2.054688 -22.6875 C 2.054688 -8.496094 11.578125 0.933594 25.113281 0.933594 C 37.34375 0.933594 43.878906 -8.308594 44.066406 -13.445312 C 44.160156 -15.5 41.921875 -16.058594 40.613281 -14.75 Z M 23.339844 -41.171875 C 28.101562 -41.171875 29.597656 -34.542969 29.597656 -31.558594 C 29.597656 -29.597656 28.664062 -27.824219 27.167969 -26.796875 L 18.484375 -21.566406 C 17.550781 -24.367188 17.085938 -27.730469 17.085938 -31.371094 C 17.085938 -36.785156 19.511719 -41.171875 23.339844 -41.171875 Z M 23.339844 -41.171875 "/></g></g></g><g fill="#001a70" fill-opacity="1"><g transform="translate(118.225781, 92.524592)"><g><path d="M 53.03125 -10.175781 L 51.816406 -26.328125 C 50.695312 -41.171875 42.105469 -45.75 33.984375 -45.75 C 27.824219 -45.75 23.152344 -43.226562 20.632812 -38.746094 L 20.632812 -43.132812 C 20.632812 -45 19.417969 -46.589844 17.085938 -45.375 L 4.015625 -38.933594 C 2.707031 -38.277344 1.773438 -37.71875 1.773438 -36.597656 L 1.773438 -36.320312 C 1.773438 -33.609375 6.722656 -33.050781 6.722656 -28.570312 L 6.722656 -10.175781 C 6.722656 -5.882812 2.613281 -4.761719 2.613281 -2.054688 L 2.613281 -1.679688 C 2.613281 -0.558594 3.453125 0.09375 4.855469 0.09375 L 25.019531 0.09375 C 26.421875 0.09375 27.261719 -0.558594 27.261719 -1.679688 L 27.261719 -2.054688 C 27.261719 -4.761719 23.152344 -5.882812 23.152344 -10.175781 L 23.152344 -30.53125 C 23.152344 -35.945312 25.113281 -39.585938 29.222656 -39.585938 C 33.425781 -39.585938 35.199219 -36.132812 35.664062 -26.886719 L 36.597656 -10.175781 C 36.878906 -5.882812 33.238281 -4.761719 33.238281 -2.054688 L 33.238281 -1.679688 C 33.238281 -0.558594 34.078125 0.09375 35.476562 0.09375 L 54.152344 0.09375 C 55.457031 0.09375 56.390625 -0.558594 56.390625 -1.679688 L 56.390625 -2.054688 C 56.390625 -4.761719 53.308594 -5.882812 53.03125 -10.175781 Z M 53.03125 -10.175781 "/></g></g></g></g></g><g transform="matrix(1, 0, 0, 1, 176, 9)"><g clip-path="url(#d3d5f7f15a)"><g fill="#1089ff" fill-opacity="1"><g transform="translate(1.034666, 92.874416)"><g><path d="M 21.753906 0.933594 C 31.929688 0.933594 37.253906 -6.628906 37.253906 -13.816406 C 37.253906 -15.59375 35.011719 -16.152344 33.703125 -14.472656 C 32.675781 -12.789062 31.183594 -11.015625 27.542969 -11.015625 C 25.207031 -11.015625 23.339844 -12.882812 23.339844 -16.058594 L 23.339844 -38.464844 L 32.957031 -38.464844 C 34.171875 -38.464844 35.105469 -39.398438 35.105469 -40.613281 L 35.105469 -42.667969 C 35.105469 -43.882812 34.171875 -44.816406 32.957031 -44.816406 L 23.339844 -44.816406 L 23.339844 -54.246094 C 23.339844 -55.738281 22.3125 -56.671875 20.820312 -56.671875 L 18.671875 -56.671875 C 17.460938 -56.671875 16.433594 -55.738281 16.152344 -54.246094 C 14.9375 -48.550781 10.457031 -44.816406 4.761719 -44.816406 L 2.988281 -44.816406 C 1.679688 -44.816406 0.839844 -43.972656 0.839844 -42.667969 L 0.839844 -40.613281 C 0.839844 -39.398438 1.773438 -38.464844 2.988281 -38.464844 L 6.535156 -38.464844 L 6.535156 -16.339844 C 6.535156 -5.042969 12.511719 0.933594 21.753906 0.933594 Z M 21.753906 0.933594 "/></g></g></g><g fill="#1089ff" fill-opacity="1"><g transform="translate(38.659713, 92.874416)"><g><path d="M 40.613281 -14.75 C 38.933594 -12.511719 35.292969 -10.644531 31.277344 -10.644531 C 26.703125 -10.644531 23.0625 -12.882812 20.632812 -16.710938 L 39.214844 -27.167969 C 41.359375 -28.289062 42.855469 -30.15625 42.855469 -32.957031 C 42.855469 -38.839844 37.253906 -45.75 25.023438 -45.75 C 12.789062 -45.75 2.054688 -36.503906 2.054688 -22.6875 C 2.054688 -8.496094 11.578125 0.933594 25.113281 0.933594 C 37.34375 0.933594 43.882812 -8.308594 44.066406 -13.445312 C 44.160156 -15.5 41.921875 -16.058594 40.613281 -14.75 Z M 23.339844 -41.171875 C 28.101562 -41.171875 29.597656 -34.542969 29.597656 -31.558594 C 29.597656 -29.597656 28.664062 -27.824219 27.167969 -26.796875 L 18.484375 -21.566406 C 17.550781 -24.367188 17.085938 -27.730469 17.085938 -31.371094 C 17.085938 -36.785156 19.511719 -41.171875 23.339844 -41.171875 Z M 23.339844 -41.171875 "/></g></g></g><g fill="#1089ff" fill-opacity="1"><g transform="translate(84.313914, 92.874416)"><g><path d="M 26.046875 0.933594 C 38.839844 0.933594 45.28125 -6.816406 45.5625 -14.9375 C 45.5625 -16.992188 43.226562 -17.460938 42.015625 -15.964844 C 40.054688 -13.351562 36.878906 -10.550781 31.652344 -10.550781 C 22.40625 -10.550781 16.433594 -18.578125 16.433594 -30.71875 C 16.433594 -36.410156 19.046875 -41.082031 22.96875 -41.171875 C 29.875 -41.265625 29.035156 -27.074219 38.558594 -26.515625 C 43.601562 -26.328125 45.375 -29.128906 45.375 -31.929688 C 45.375 -40.238281 36.410156 -45.84375 25.488281 -45.75 C 12.789062 -45.65625 1.773438 -37.066406 1.773438 -22.5 C 1.773438 -10.269531 11.390625 0.933594 26.046875 0.933594 Z M 26.046875 0.933594 "/></g></g></g><g fill="#1089ff" fill-opacity="1"><g transform="translate(131.742006, 92.874416)"><g><path d="M 52.097656 -10.269531 L 50.882812 -27.074219 C 49.855469 -41.171875 41.265625 -45.75 33.144531 -45.75 C 28.382812 -45.75 24.460938 -44.160156 21.753906 -41.359375 L 21.753906 -68.4375 C 21.753906 -70.582031 20.351562 -71.332031 18.207031 -70.398438 L 3.453125 -63.859375 C 2.148438 -63.300781 1.308594 -62.367188 1.308594 -61.246094 L 1.308594 -60.96875 C 1.308594 -58.351562 5.882812 -57.886719 5.882812 -53.496094 L 5.882812 -10.175781 C 5.882812 -5.882812 1.773438 -4.855469 1.773438 -2.148438 L 1.773438 -1.773438 C 1.773438 -0.652344 2.613281 0 3.921875 0 L 24.179688 0 C 25.488281 0 26.421875 -0.652344 26.421875 -1.773438 L 26.421875 -2.148438 C 26.421875 -4.855469 22.21875 -5.882812 22.21875 -10.175781 L 22.21875 -30.53125 C 22.21875 -35.945312 24.179688 -39.585938 28.289062 -39.585938 C 32.585938 -39.585938 34.359375 -36.132812 34.824219 -27.636719 L 35.757812 -10.269531 C 35.945312 -5.976562 32.398438 -4.855469 32.398438 -2.148438 L 32.398438 -1.773438 C 32.398438 -0.652344 33.238281 0 34.636719 0 L 53.21875 0 C 54.617188 0 55.457031 -0.652344 55.457031 -1.773438 L 55.457031 -2.148438 C 55.457031 -4.855469 52.46875 -5.976562 52.097656 -10.269531 Z M 52.097656 -10.269531 "/></g></g></g></g></g></svg>